<?xml version="1.0" encoding="UTF-8"?>
<!DOCTYPE svg PUBLIC "-//W3C//DTD SVG 1.1//EN" "http://www.w3.org/Graphics/SVG/1.1/DTD/svg11.dtd">
<svg xmlns="http://www.w3.org/2000/svg" version="1.1" width="512px" height="512px" style="shape-rendering:geometricPrecision; text-rendering:geometricPrecision; image-rendering:optimizeQuality; fill-rule:evenodd; clip-rule:evenodd" xmlns:xlink="http://www.w3.org/1999/xlink">
<g><path style="opacity:1" fill="#00FF00" d="M -0.5,-0.5 C 170.167,-0.5 340.833,-0.5 511.5,-0.5C 511.5,170.167 511.5,340.833 511.5,511.5C 340.833,511.5 170.167,511.5 -0.5,511.5C -0.5,340.833 -0.5,170.167 -0.5,-0.5 Z"/></g>
<g><path style="opacity:1" fill="#d5ab63" d="M 260.5,75.5 C 259.167,75.5 257.833,75.5 256.5,75.5C 255.778,75.0825 255.278,74.4158 255,73.5C 254.28,75.0557 253.113,76.0557 251.5,76.5C 252.23,71.2393 253.73,66.2393 256,61.5C 257.505,66.1967 259.005,70.8634 260.5,75.5 Z"/></g>
<g><path style="opacity:1" fill="#d6b167" d="M 304.5,72.5 C 313.231,75.7769 320.397,81.1103 326,88.5C 327.411,90.6504 328.245,92.9837 328.5,95.5C 325.089,94.6403 321.756,93.4737 318.5,92C 313.977,85.3242 309.311,78.8242 304.5,72.5 Z"/></g>
<g><path style="opacity:1" fill="#d8b160" d="M 182.5,98.5 C 181.833,98.8333 181.167,99.1667 180.5,99.5C 184.606,87.5558 192.44,78.8891 204,73.5C 201.169,80.141 197.503,86.4744 193,92.5C 190.015,95.4089 186.515,97.4089 182.5,98.5 Z"/></g>
<g><path style="opacity:1" fill="#d9b15f" d="M 210.5,84.5 C 230.419,82.2446 231.419,85.0779 213.5,93C 208.516,94.9206 203.516,94.9206 198.5,93C 201.725,88.9034 205.725,86.0701 210.5,84.5 Z"/></g>
<g><path style="opacity:1" fill="#fcfdf2" d="M 258.5,89.5 C 257.601,90.4715 256.434,91.1382 255,91.5C 252.037,89.6208 248.871,88.1208 245.5,87C 248.992,87.0704 251.992,86.2371 254.5,84.5C 256.203,83.3398 256.869,84.0065 256.5,86.5C 264.288,85.9294 264.954,86.9294 258.5,89.5 Z"/></g>
<g><path style="opacity:1" fill="#d1aa5a" d="M 169.5,104.5 C 168.167,104.833 166.833,105.167 165.5,105.5C 167.496,93.1538 174.163,84.1538 185.5,78.5C 185.833,78.6667 186.167,78.8333 186.5,79C 181.512,85.1373 177.679,91.9706 175,99.5C 173.188,101.3 171.355,102.967 169.5,104.5 Z"/></g>
<g><path style="opacity:1" fill="#b1894e" d="M 279.5,83.5 C 275.465,86.8573 271.132,89.8573 266.5,92.5C 268.831,86.8668 273.164,83.8668 279.5,83.5 Z"/></g>
<g><path style="opacity:1" fill="#cfa95e" d="M 322.5,75.5 C 331.452,79.9513 338.285,86.618 343,95.5C 343.814,97.9018 343.647,100.235 342.5,102.5C 339.528,100.694 336.695,98.6944 334,96.5C 331.147,88.8518 327.314,81.8518 322.5,75.5 Z"/></g>
<g><path style="opacity:1" fill="#f7d783" d="M 256.5,75.5 C 258.271,81.2548 262.271,84.5881 268.5,85.5C 266.203,86.8976 264.037,88.5643 262,90.5C 261.413,94.3529 261.746,98.0196 263,101.5C 260.068,97.12 256.235,95.12 251.5,95.5C 251.962,94.1201 252.962,93.4534 254.5,93.5C 256.437,94.2604 258.27,95.2604 260,96.5C 259.563,94.2433 259.063,91.91 258.5,89.5C 264.954,86.9294 264.288,85.9294 256.5,86.5C 256.869,84.0065 256.203,83.3398 254.5,84.5C 250.25,85.2725 245.917,85.7725 241.5,86C 242.056,86.3826 242.389,86.8826 242.5,87.5C 238.592,86.2313 234.925,84.5647 231.5,82.5C 237.532,82.1639 243.532,81.4972 249.5,80.5C 249.994,78.9745 250.661,77.6412 251.5,76.5C 253.113,76.0557 254.28,75.0557 255,73.5C 255.278,74.4158 255.778,75.0825 256.5,75.5 Z"/></g>
<g><path style="opacity:1" fill="#d5af60" d="M 287.5,83.5 C 295.718,82.1818 303.051,84.0151 309.5,89C 310.293,90.0852 310.96,91.2519 311.5,92.5C 300.823,94.994 291.49,92.494 283.5,85C 285.058,84.79 286.391,84.29 287.5,83.5 Z"/></g>
<g><path style="opacity:1" fill="#d0ab60" d="M 340.5,83.5 C 340.56,82.9569 340.893,82.6236 341.5,82.5C 349.296,87.4618 355.129,94.1285 359,102.5C 359.667,105.833 359.667,109.167 359,112.5C 350.817,107.479 346.15,100.146 345,90.5C 343.974,87.7613 342.474,85.428 340.5,83.5 Z"/></g>
<g><path style="opacity:1" fill="#caa558" d="M 166.5,85.5 C 167.239,85.369 167.906,85.5357 168.5,86C 166.951,87.214 165.785,88.714 165,90.5C 163.131,95.7724 161.465,101.106 160,106.5C 157.688,109.979 154.854,112.979 151.5,115.5C 150.343,112.216 150.176,108.882 151,105.5C 154.915,97.7655 160.081,91.0989 166.5,85.5 Z"/></g>
<g><path style="opacity:1" fill="#f2cb75" d="M 242.5,87.5 C 245.406,88.7866 248.406,89.7866 251.5,90.5C 251.327,93.1795 250.327,95.5128 248.5,97.5C 248.624,98.1067 248.957,98.44 249.5,98.5C 248.878,99.6266 248.045,100.627 247,101.5C 248.067,95.9981 246.567,91.3314 242.5,87.5 Z"/></g>
<g><path style="opacity:1" fill="#fae9a1" d="M 254.5,84.5 C 251.992,86.2371 248.992,87.0704 245.5,87C 248.871,88.1208 252.037,89.6208 255,91.5C 256.434,91.1382 257.601,90.4715 258.5,89.5C 259.063,91.91 259.563,94.2433 260,96.5C 258.27,95.2604 256.437,94.2604 254.5,93.5C 252.962,93.4534 251.962,94.1201 251.5,95.5C 250.833,96.5 250.167,97.5 249.5,98.5C 248.957,98.44 248.624,98.1067 248.5,97.5C 250.327,95.5128 251.327,93.1795 251.5,90.5C 248.406,89.7866 245.406,88.7866 242.5,87.5C 242.389,86.8826 242.056,86.3826 241.5,86C 245.917,85.7725 250.25,85.2725 254.5,84.5 Z"/></g>
<g><path style="opacity:1" fill="#ead091" d="M 328.5,98.5 C 325.689,98.1743 323.022,97.3409 320.5,96C 323.539,95.7357 326.206,96.5691 328.5,98.5 Z"/></g>
<g><path style="opacity:1" fill="#cca65f" d="M 311.5,97.5 C 316.449,96.9589 321.116,97.7922 325.5,100C 322.874,102.146 319.874,103.479 316.5,104C 310.5,104.667 304.5,104.667 298.5,104C 302.925,101.787 307.259,99.6207 311.5,97.5 Z"/></g>
<g><path style="opacity:1" fill="#eabe68" d="M 256.5,75.5 C 257.833,75.5 259.167,75.5 260.5,75.5C 260.869,77.4412 261.536,79.2745 262.5,81C 269.548,81.6922 275.214,82.5256 279.5,83.5C 273.164,83.8668 268.831,86.8668 266.5,92.5C 265.596,93.209 265.263,94.209 265.5,95.5C 264.589,98.4516 264.422,101.452 265,104.5C 261.954,103.035 259.121,101.201 256.5,99C 254.19,98.5034 251.857,98.3367 249.5,98.5C 250.167,97.5 250.833,96.5 251.5,95.5C 256.235,95.12 260.068,97.12 263,101.5C 261.746,98.0196 261.413,94.3529 262,90.5C 264.037,88.5643 266.203,86.8976 268.5,85.5C 262.271,84.5881 258.271,81.2548 256.5,75.5 Z"/></g>
<g><path style="opacity:1" fill="#cea95e" d="M 190.5,97.5 C 193.518,97.3354 196.518,97.502 199.5,98C 204.167,100 208.833,102 213.5,104C 207.167,104.667 200.833,104.667 194.5,104C 191.382,102.941 188.382,101.608 185.5,100C 187.315,99.2432 188.981,98.4098 190.5,97.5 Z"/></g>
<g><path style="opacity:1" fill="#bf904d" d="M 231.5,82.5 C 234.925,84.5647 238.592,86.2313 242.5,87.5C 246.567,91.3314 248.067,95.9981 247,101.5C 248.045,100.627 248.878,99.6266 249.5,98.5C 251.857,98.3367 254.19,98.5034 256.5,99C 259.121,101.201 261.954,103.035 265,104.5C 264.422,101.452 264.589,98.4516 265.5,95.5C 267.635,101.07 269.468,106.737 271,112.5C 266.171,108.087 260.838,104.42 255,101.5C 249.147,104.765 243.814,108.765 239,113.5C 240.252,106.632 242.419,99.9658 245.5,93.5C 239.996,90.2487 234.662,86.7487 229.5,83C 230.094,82.5357 230.761,82.369 231.5,82.5 Z"/></g>
<g><path style="opacity:1" fill="#cba660" d="M 327.5,104.5 C 332.416,104.29 336.749,105.79 340.5,109C 339.377,110.044 338.044,110.71 336.5,111C 328.057,111.802 319.724,111.135 311.5,109C 317.124,108.098 322.458,106.598 327.5,104.5 Z"/></g>
<g><path style="opacity:1" fill="#c7a158" d="M 177.5,104.5 C 184.922,105.472 192.256,106.972 199.5,109C 189.759,112.185 180.092,112.185 170.5,109C 172.898,107.476 175.231,105.976 177.5,104.5 Z"/></g>
<g><path style="opacity:1" fill="#c5a25d" d="M 358.5,91.5 C 365.585,96.7618 371.085,103.428 375,111.5C 375.967,116.37 375.467,121.037 373.5,125.5C 366.166,118.49 362.333,109.823 362,99.5C 360.546,96.9289 359.38,94.2622 358.5,91.5 Z"/></g>
<g><path style="opacity:1" fill="#c49e50" d="M 148.5,94.5 C 149.239,94.369 149.906,94.5357 150.5,95C 147.248,103.248 144.748,111.748 143,120.5C 141.374,123.128 139.374,125.461 137,127.5C 135,122.5 135,117.5 137,112.5C 140.106,105.935 143.939,99.9348 148.5,94.5 Z"/></g>
<g><path style="opacity:1" fill="#c19c53" d="M 161.5,114.5 C 169.892,114.71 178.225,115.543 186.5,117C 176.514,120.998 166.181,122.665 155.5,122C 155.167,121.667 154.833,121.333 154.5,121C 156.907,118.817 159.24,116.65 161.5,114.5 Z"/></g>
<g><path style="opacity:1" fill="#c4a05b" d="M 331.5,115.5 C 336.844,115.334 342.177,115.501 347.5,116C 350.952,116.892 353.952,118.558 356.5,121C 345.248,124.861 334.582,123.528 324.5,117C 327.036,116.814 329.369,116.314 331.5,115.5 Z"/></g>
<g><path style="opacity:1" fill="#e8c675" d="M 182.5,98.5 C 182.586,99.4959 182.252,100.329 181.5,101C 168.632,106.716 157.298,114.55 147.5,124.5C 144.272,127.306 141.272,130.306 138.5,133.5C 138.631,132.761 138.464,132.094 138,131.5C 136.549,133.464 134.716,134.797 132.5,135.5C 141.791,124.695 152.457,115.528 164.5,108C 165.252,107.329 165.586,106.496 165.5,105.5C 166.833,105.167 168.167,104.833 169.5,104.5C 173.017,102.576 176.684,100.909 180.5,99.5C 181.167,99.1667 181.833,98.8333 182.5,98.5 Z"/></g>
<g><path style="opacity:1" fill="#bf994b" d="M 130.5,108.5 C 131.043,108.56 131.376,108.893 131.5,109.5C 130.702,116.45 130.202,123.45 130,130.5C 128.939,135.231 126.606,139.231 123,142.5C 119.46,129.977 121.96,118.644 130.5,108.5 Z"/></g>
<g><path style="opacity:1" fill="#cda965" d="M 328.5,98.5 C 346.755,105.796 362.422,116.796 375.5,131.5C 374.209,131.263 373.209,131.596 372.5,132.5C 359.239,119.22 344.572,107.886 328.5,98.5 Z"/></g>
<g><path style="opacity:1" fill="#be984c" d="M 160.5,133.5 C 157.157,134.224 153.824,135.057 150.5,136C 147.118,136.824 143.784,136.657 140.5,135.5C 142.926,132.068 145.926,129.401 149.5,127.5C 157.895,127.144 166.228,126.644 174.5,126C 169.899,128.798 165.232,131.298 160.5,133.5 Z"/></g>
<g><path style="opacity:1" fill="#be9c5a" d="M 375.5,102.5 C 385.676,111.52 390.509,122.854 390,136.5C 389.784,138.384 389.117,140.051 388,141.5C 380.284,133.408 377.284,123.741 379,112.5C 377.925,109.106 376.758,105.772 375.5,102.5 Z"/></g>
<g><path style="opacity:1" fill="#ba9651" d="M 339.5,128.5 C 351.441,125.266 362.108,127.766 371.5,136C 359.747,137.894 349.08,135.394 339.5,128.5 Z"/></g>
<g><path style="opacity:1" fill="#b28e48" d="M 116.5,122.5 C 117.043,122.56 117.376,122.893 117.5,123.5C 116.695,132.119 116.195,140.785 116,149.5C 115.683,153.799 114.017,157.465 111,160.5C 105.047,146.749 106.881,134.082 116.5,122.5 Z"/></g>
<g><path style="opacity:1" fill="#b7924a" d="M 161.5,137.5 C 161.938,137.435 162.272,137.601 162.5,138C 159.645,140.031 156.978,142.197 154.5,144.5C 149.34,147.245 144.006,149.745 138.5,152C 134.833,152.667 131.167,152.667 127.5,152C 129.887,147.947 133.22,144.947 137.5,143C 145.572,141.269 153.572,139.435 161.5,137.5 Z"/></g>
<g><path style="opacity:1" fill="#b28f4e" d="M 349.5,138.5 C 357.834,140.286 366.167,142.12 374.5,144C 377.797,146.295 380.797,148.962 383.5,152C 369.492,153.817 358.159,149.317 349.5,138.5 Z"/></g>
<g><path style="opacity:1" fill="#b79556" d="M 391.5,117.5 C 399.068,125.981 403.401,135.981 404.5,147.5C 404.157,152.384 402.99,157.05 401,161.5C 398.398,157.294 396.064,152.961 394,148.5C 394.036,138.027 393.203,127.694 391.5,117.5 Z"/></g>
<g><path style="opacity:1" fill="#dba435" d="M 259.5,148.5 C 258.972,149.721 258.305,150.887 257.5,152C 257.833,152.333 258.167,152.667 258.5,153C 255.924,154.22 253.257,154.053 250.5,152.5C 252.01,142.45 253.843,132.45 256,122.5C 257.308,131.157 258.475,139.823 259.5,148.5 Z"/></g>
<g><path style="opacity:1" fill="#f9f8ef" d="M 147.5,124.5 C 147.932,125.71 148.599,126.71 149.5,127.5C 145.926,129.401 142.926,132.068 140.5,135.5C 143.784,136.657 147.118,136.824 150.5,136C 153.824,135.057 157.157,134.224 160.5,133.5C 160.433,134.959 160.766,136.292 161.5,137.5C 153.572,139.435 145.572,141.269 137.5,143C 133.22,144.947 129.887,147.947 127.5,152C 131.167,152.667 134.833,152.667 138.5,152C 144.006,149.745 149.34,147.245 154.5,144.5C 153.211,147.79 150.877,150.123 147.5,151.5C 147.624,152.107 147.957,152.44 148.5,152.5C 140.701,155.602 132.701,158.435 124.5,161C 121.073,163.756 118.407,167.09 116.5,171C 125.694,170.658 134.027,167.824 141.5,162.5C 139.967,164.79 140.3,165.456 142.5,164.5C 143.782,165.958 143.782,167.292 142.5,168.5C 134.504,171.454 126.171,174.621 117.5,178C 113.042,180.74 109.875,184.573 108,189.5C 107.251,190.635 107.417,191.635 108.5,192.5C 117.71,190.231 125.71,185.898 132.5,179.5C 134.077,181.802 133.411,183.302 130.5,184C 131.056,184.383 131.389,184.883 131.5,185.5C 124.894,190.144 117.894,194.311 110.5,198C 104.077,202.35 101.077,208.183 101.5,215.5C 115.384,209.278 126.051,199.611 133.5,186.5C 134.795,187.031 135.462,188.364 135.5,190.5C 134.178,190.33 133.011,190.663 132,191.5C 131.503,194.146 131.336,196.813 131.5,199.5C 130.167,199.5 128.833,199.5 127.5,199.5C 127.311,203.348 127.311,207.015 127.5,210.5C 126.234,211.362 124.901,212.029 123.5,212.5C 124.676,209.847 125.509,207.181 126,204.5C 118.589,210.122 111.089,215.622 103.5,221C 101.934,223.326 100.268,225.492 98.5,227.5C 98.631,226.761 98.4643,226.094 98,225.5C 97.2303,226.598 96.397,226.598 95.5,225.5C 98.4974,205.842 104.497,187.175 113.5,169.5C 121.021,156.972 129.354,144.972 138.5,133.5C 141.272,130.306 144.272,127.306 147.5,124.5 Z"/></g>
<g><path style="opacity:1" fill="#c8a253" d="M 138.5,133.5 C 129.354,144.972 121.021,156.972 113.5,169.5C 112.599,168.71 111.932,167.71 111.5,166.5C 117.252,155.331 124.252,144.997 132.5,135.5C 134.716,134.797 136.549,133.464 138,131.5C 138.464,132.094 138.631,132.761 138.5,133.5 Z"/></g>
<g><path style="opacity:1" fill="#ad8843" d="M 148.5,152.5 C 149.239,152.369 149.906,152.536 150.5,153C 147.296,156.036 144.296,159.203 141.5,162.5C 134.027,167.824 125.694,170.658 116.5,171C 118.407,167.09 121.073,163.756 124.5,161C 132.701,158.435 140.701,155.602 148.5,152.5 Z"/></g>
<g><path style="opacity:1" fill="#ac8b4f" d="M 359.5,151.5 C 362.476,153.664 365.809,155.164 369.5,156C 381.218,155.992 389.884,160.992 395.5,171C 379.883,171.027 367.883,164.527 359.5,151.5 Z"/></g>
<g><path style="opacity:1" fill="#af8c48" d="M 102.5,137.5 C 102.647,141.967 102.814,146.633 103,151.5C 106.895,161.277 106.061,170.611 100.5,179.5C 93.6197,168.98 92.7864,157.98 98,146.5C 99.5133,143.473 101.013,140.473 102.5,137.5 Z"/></g>
<g><path style="opacity:1" fill="#c3903c" d="M 259.5,148.5 C 260.861,153.304 261.861,158.304 262.5,163.5C 258.03,164.486 253.363,164.819 248.5,164.5C 248.401,161.763 248.735,159.096 249.5,156.5C 249.833,155.167 250.167,153.833 250.5,152.5C 253.257,154.053 255.924,154.22 258.5,153C 258.167,152.667 257.833,152.333 257.5,152C 258.305,150.887 258.972,149.721 259.5,148.5 Z"/></g>
<g><path style="opacity:1" fill="#af8e50" d="M 406.5,134.5 C 414.216,144.49 417.382,155.824 416,168.5C 414.694,172.446 412.861,176.112 410.5,179.5C 407.833,174.663 406.166,169.497 405.5,164C 408.964,154.271 409.297,144.438 406.5,134.5 Z"/></g>
<g><path style="opacity:1" fill="#c69134" d="M 266.5,169.5 C 272.51,170.094 278.51,170.76 284.5,171.5C 286.984,173.545 287.984,176.212 287.5,179.5C 284.167,179.5 280.833,179.5 277.5,179.5C 273.5,179.5 269.5,179.5 265.5,179.5C 265.187,175.958 265.521,172.625 266.5,169.5 Z"/></g>
<g><path style="opacity:1" fill="#ab8a4d" d="M 369.5,167.5 C 377.895,171.804 386.562,175.637 395.5,179C 399.487,182.636 402.487,186.97 404.5,192C 388.581,189.915 376.914,181.749 369.5,167.5 Z"/></g>
<g><path style="opacity:1" fill="#af7f33" d="M 241.5,169.5 C 242.833,169.5 244.167,169.5 245.5,169.5C 245.5,172.5 245.5,175.5 245.5,178.5C 243.265,178.205 241.265,178.539 239.5,179.5C 235.833,179.5 232.167,179.5 228.5,179.5C 222.833,179.5 217.167,179.5 211.5,179.5C 211.5,177.5 211.5,175.5 211.5,173.5C 212.791,173.737 213.791,173.404 214.5,172.5C 223.409,171.083 232.409,170.083 241.5,169.5 Z"/></g>
<g><path style="opacity:1" fill="#9e7234" d="M 214.5,172.5 C 213.791,173.404 212.791,173.737 211.5,173.5C 211.5,175.5 211.5,177.5 211.5,179.5C 217.167,179.5 222.833,179.5 228.5,179.5C 221.261,180.827 213.927,182.16 206.5,183.5C 206.389,182.883 206.056,182.383 205.5,182C 200.223,181.885 195.223,180.719 190.5,178.5C 198.184,175.656 206.184,173.656 214.5,172.5 Z"/></g>
<g><path style="opacity:1" fill="#a6823e" d="M 89.5,155.5 C 89.5606,164.089 91.394,172.422 95,180.5C 96.0347,187.355 95.368,194.022 93,200.5C 85.5142,192.229 82.8475,182.563 85,171.5C 85.6844,165.896 87.1844,160.563 89.5,155.5 Z"/></g>
<g><path style="opacity:1" fill="#ae8c4f" d="M 375.5,131.5 C 401.309,159.798 416.309,193.132 420.5,231.5C 417.535,230.602 416.201,231.935 416.5,235.5C 412.328,196.64 397.661,162.307 372.5,132.5C 373.209,131.596 374.209,131.263 375.5,131.5 Z"/></g>
<g><path style="opacity:1" fill="#a67833" d="M 284.5,171.5 C 300.892,173.279 316.726,177.279 332,183.5C 333.303,183.022 334.469,182.355 335.5,181.5C 339.373,181.334 340.04,182.334 337.5,184.5C 335.896,185.287 335.229,186.62 335.5,188.5C 334.531,189.309 333.698,190.309 333,191.5C 332.333,189.5 331.667,187.5 331,185.5C 324.346,186.351 317.846,186.351 311.5,185.5C 300.107,183.085 288.773,181.085 277.5,179.5C 280.833,179.5 284.167,179.5 287.5,179.5C 287.984,176.212 286.984,173.545 284.5,171.5 Z"/></g>
<g><path style="opacity:1" fill="#a9894b" d="M 420.5,155.5 C 427.824,166.676 429.324,178.676 425,191.5C 423.046,195.282 420.546,198.615 417.5,201.5C 413.287,190.179 414.121,179.179 420,168.5C 420.499,164.179 420.666,159.846 420.5,155.5 Z"/></g>
<g><path style="opacity:1" fill="#a98641" d="M 142.5,168.5 C 139.167,172.167 135.833,175.833 132.5,179.5C 125.71,185.898 117.71,190.231 108.5,192.5C 107.417,191.635 107.251,190.635 108,189.5C 109.875,184.573 113.042,180.74 117.5,178C 126.171,174.621 134.504,171.454 142.5,168.5 Z"/></g>
<g><path style="opacity:1" fill="#885e26" d="M 190.5,178.5 C 195.223,180.719 200.223,181.885 205.5,182C 206.056,182.383 206.389,182.883 206.5,183.5C 195.801,185.423 185.467,188.423 175.5,192.5C 173.621,193.341 171.621,193.675 169.5,193.5C 165.081,190.412 164.414,186.579 167.5,182C 171.139,179.915 174.639,180.082 178,182.5C 182.02,180.66 186.187,179.326 190.5,178.5 Z"/></g>
<g><path style="opacity:1" fill="#f6f3e7" d="M 170.5,184.5 C 174.161,184.35 175.161,185.85 173.5,189C 172.207,189.49 170.873,189.657 169.5,189.5C 169.366,187.708 169.699,186.042 170.5,184.5 Z"/></g>
<g><path style="opacity:1" fill="#8c652f" d="M 335.5,181.5 C 342.685,179.855 345.519,182.855 344,190.5C 342.961,191.71 341.794,192.71 340.5,193.5C 338.05,193.702 335.717,193.369 333.5,192.5C 325.932,190.531 318.599,188.198 311.5,185.5C 317.846,186.351 324.346,186.351 331,185.5C 331.667,187.5 332.333,189.5 333,191.5C 333.698,190.309 334.531,189.309 335.5,188.5C 339.24,191.278 341.073,190.278 341,185.5C 339.989,184.663 338.822,184.33 337.5,184.5C 340.04,182.334 339.373,181.334 335.5,181.5 Z"/></g>
<g><path style="opacity:1" fill="#ede7de" d="M 337.5,184.5 C 338.822,184.33 339.989,184.663 341,185.5C 341.073,190.278 339.24,191.278 335.5,188.5C 335.229,186.62 335.896,185.287 337.5,184.5 Z"/></g>
<g><path style="opacity:1" fill="#a07f40" d="M 78.5,176.5 C 80.2616,186.945 83.7616,196.945 89,206.5C 89.7243,212.313 89.0577,217.98 87,223.5C 77.323,213.799 73.6563,202.132 76,188.5C 77.0278,184.527 77.8611,180.527 78.5,176.5 Z"/></g>
<g><path style="opacity:1" fill="#9e7d42" d="M 377.5,184.5 C 384.846,190.331 392.846,195.165 401.5,199C 406.801,202.926 409.301,208.092 409,214.5C 393.773,209.439 383.273,199.439 377.5,184.5 Z"/></g>
<g><path style="opacity:1" fill="#a48344" d="M 431.5,175.5 C 436.569,188.004 436.735,200.67 432,213.5C 429.667,217.167 426.667,220.167 423,222.5C 421.137,217.657 420.47,212.657 421,207.5C 424.865,200.435 428.198,193.102 431,185.5C 431.498,182.183 431.665,178.85 431.5,175.5 Z"/></g>
<g><path style="opacity:1" fill="#a58240" d="M 133.5,186.5 C 126.051,199.611 115.384,209.278 101.5,215.5C 101.077,208.183 104.077,202.35 110.5,198C 117.894,194.311 124.894,190.144 131.5,185.5C 133.838,183.989 134.504,184.323 133.5,186.5 Z"/></g>
<g><path style="opacity:1" fill="#fefdfb" d="M 336.5,209.5 C 336.5,210.833 336.5,212.167 336.5,213.5C 335.503,234.327 335.169,255.327 335.5,276.5C 325.985,276.827 316.652,276.494 307.5,275.5C 311.167,264.833 314.833,254.167 318.5,243.5C 324.346,229.788 329.68,215.788 334.5,201.5C 335.222,201.082 335.722,200.416 336,199.5C 336.498,202.817 336.665,206.15 336.5,209.5 Z"/></g>
<g><path style="opacity:1" fill="#fefcfa" d="M 341.5,203.5 C 343.597,209.349 345.931,215.015 348.5,220.5C 354.967,238.565 361.633,256.565 368.5,274.5C 364.217,275.827 359.551,276.493 354.5,276.5C 349.654,276.499 344.988,276.166 340.5,275.5C 340.169,251.328 340.502,227.328 341.5,203.5 Z"/></g>
<g><path style="opacity:1" fill="#9c6e2f" d="M 247.5,181.5 C 249.717,182.369 252.05,182.702 254.5,182.5C 254.5,196.167 254.5,209.833 254.5,223.5C 252.421,224.5 250.421,224.166 248.5,222.5C 247.911,219.36 247.244,216.36 246.5,213.5C 246.172,202.654 246.506,191.987 247.5,181.5 Z"/></g>
<g><path style="opacity:1" fill="#99793f" d="M 384.5,204.5 C 392.546,210.946 400.713,217.279 409,223.5C 412.358,228.056 413.525,233.056 412.5,238.5C 397.669,231.672 388.336,220.338 384.5,204.5 Z"/></g>
<g><path style="opacity:1" fill="#99783a" d="M 70.5,201.5 C 71.2408,205.172 72.4075,208.839 74,212.5C 78.1012,218.933 81.7678,225.599 85,232.5C 85.8275,236.871 85.6609,241.205 84.5,245.5C 72.988,238.642 67.988,228.475 69.5,215C 69.5964,210.465 69.9298,205.965 70.5,201.5 Z"/></g>
<g><path style="opacity:1" fill="#a07e3e" d="M 123.5,212.5 C 117.627,223.876 109.127,232.876 98,239.5C 97.3933,235.463 97.56,231.463 98.5,227.5C 100.268,225.492 101.934,223.326 103.5,221C 111.089,215.622 118.589,210.122 126,204.5C 125.509,207.181 124.676,209.847 123.5,212.5 Z"/></g>
<g><path style="opacity:1" fill="#fcfaf8" d="M 168.5,206.5 C 169.497,224.326 169.83,242.326 169.5,260.5C 169.5,265.833 169.5,271.167 169.5,276.5C 170.833,276.5 172.167,276.5 173.5,276.5C 179.69,276.177 185.69,276.51 191.5,277.5C 189.833,277.5 188.167,277.5 186.5,277.5C 178.167,277.5 169.833,277.5 161.5,277.5C 151.833,277.5 142.167,277.5 132.5,277.5C 133.568,276.566 134.901,276.232 136.5,276.5C 138.288,276.785 139.955,276.452 141.5,275.5C 143.37,271.221 145.036,266.888 146.5,262.5C 150.637,251.421 154.971,240.421 159.5,229.5C 162.304,221.754 165.304,214.088 168.5,206.5 Z"/></g>
<g><path style="opacity:1" fill="#e0b869" d="M 333.5,192.5 C 335.717,193.369 338.05,193.702 340.5,193.5C 345.582,202.334 349.582,211.668 352.5,221.5C 351.041,221.567 349.708,221.234 348.5,220.5C 345.931,215.015 343.597,209.349 341.5,203.5C 341.013,202.527 340.513,201.527 340,200.5C 339.502,203.482 339.335,206.482 339.5,209.5C 338.5,209.5 337.5,209.5 336.5,209.5C 336.665,206.15 336.498,202.817 336,199.5C 335.722,200.416 335.222,201.082 334.5,201.5C 334.771,199.62 334.104,198.287 332.5,197.5C 333.038,195.883 333.371,194.216 333.5,192.5 Z"/></g>
<g><path style="opacity:1" fill="#9c7c3e" d="M 439.5,197.5 C 440.268,198.263 440.768,199.263 441,200.5C 441.667,208.5 441.667,216.5 441,224.5C 439.047,234.114 433.714,241.114 425,245.5C 424.333,240.5 424.333,235.5 425,230.5C 429.25,224.335 433.25,218.002 437,211.5C 438.975,207.037 439.808,202.371 439.5,197.5 Z"/></g>
<g><path style="opacity:1" fill="#cdc1b1" d="M 245.5,166.5 C 246.213,171.398 246.879,176.398 247.5,181.5C 246.506,191.987 246.172,202.654 246.5,213.5C 246.5,230.167 246.5,246.833 246.5,263.5C 246.5,284.167 246.5,304.833 246.5,325.5C 249.167,325.5 251.833,325.5 254.5,325.5C 251.713,326.477 248.713,326.81 245.5,326.5C 245.5,277.5 245.5,228.5 245.5,179.5C 243.5,179.5 241.5,179.5 239.5,179.5C 241.265,178.539 243.265,178.205 245.5,178.5C 245.5,175.5 245.5,172.5 245.5,169.5C 244.167,169.5 242.833,169.5 241.5,169.5C 243.219,168.978 244.552,167.978 245.5,166.5 Z"/></g>
<g><path style="opacity:1" fill="#cec2ac" d="M 445.5,237.5 C 445.817,233.298 445.483,229.298 444.5,225.5C 444.312,223.897 444.812,222.563 446,221.5C 446.817,227.016 446.651,232.35 445.5,237.5 Z"/></g>
<g><path style="opacity:1" fill="#cba058" d="M 332.5,197.5 C 334.104,198.287 334.771,199.62 334.5,201.5C 329.68,215.788 324.346,229.788 318.5,243.5C 317.833,242.167 316.833,241.167 315.5,240.5C 320.928,225.992 326.595,211.658 332.5,197.5 Z"/></g>
<g><path style="opacity:1" fill="#947239" d="M 387.5,222.5 C 394.532,231.27 402.366,239.27 411,246.5C 413.343,251.602 414.01,256.936 413,262.5C 398.211,253.272 389.711,239.939 387.5,222.5 Z"/></g>
<g><path style="opacity:1" fill="#a68241" d="M 111.5,166.5 C 111.932,167.71 112.599,168.71 113.5,169.5C 104.497,187.175 98.4974,205.842 95.5,225.5C 94.1807,231.419 93.514,237.419 93.5,243.5C 92.5326,244.806 91.1993,245.473 89.5,245.5C 89.5,242.833 89.5,240.167 89.5,237.5C 91.6287,212.12 98.962,188.454 111.5,166.5 Z"/></g>
<g><path style="opacity:1" fill="#cfa254" d="M 336.5,209.5 C 337.5,209.5 338.5,209.5 339.5,209.5C 339.5,231.5 339.5,253.5 339.5,275.5C 338.791,276.404 337.791,276.737 336.5,276.5C 336.5,255.5 336.5,234.5 336.5,213.5C 336.5,212.167 336.5,210.833 336.5,209.5 Z"/></g>
<g><path style="opacity:1" fill="#98773c" d="M 444.5,225.5 C 445.483,229.298 445.817,233.298 445.5,237.5C 445.399,252.387 438.732,263.054 425.5,269.5C 424.066,263.22 424.9,257.22 428,251.5C 432,246.833 436,242.167 440,237.5C 442.354,233.798 443.854,229.798 444.5,225.5 Z"/></g>
<g><path style="opacity:1" fill="#9c7a3c" d="M 122.5,222.5 C 121.371,232.669 117.538,242.003 111,250.5C 106.667,254.833 102.333,259.167 98,263.5C 96.8732,257.245 97.5399,251.245 100,245.5C 108.373,238.628 115.873,230.961 122.5,222.5 Z"/></g>
<g><path style="opacity:1" fill="#ca9f56" d="M 348.5,220.5 C 349.708,221.234 351.041,221.567 352.5,221.5C 360.067,239.524 367.067,257.857 373.5,276.5C 371.446,276.635 369.779,275.968 368.5,274.5C 361.633,256.565 354.967,238.565 348.5,220.5 Z"/></g>
<g><path style="opacity:1" fill="#d4a65a" d="M 175.5,192.5 C 186.433,220.292 197.766,247.958 209.5,275.5C 207.955,276.452 206.288,276.785 204.5,276.5C 195.018,251.221 184.852,226.221 174,201.5C 173.5,220.83 173.333,240.164 173.5,259.5C 172.5,259.5 171.5,259.5 170.5,259.5C 170.667,240.83 170.5,222.164 170,203.5C 169.487,204.527 168.987,205.527 168.5,206.5C 165.304,214.088 162.304,221.754 159.5,229.5C 158.29,229.068 157.29,228.401 156.5,227.5C 160.274,215.952 164.608,204.618 169.5,193.5C 171.621,193.675 173.621,193.341 175.5,192.5 Z"/></g>
<g><path style="opacity:1" fill="#dcbf93" d="M 170.5,259.5 C 170.5,260.167 170.167,260.5 169.5,260.5C 169.83,242.326 169.497,224.326 168.5,206.5C 168.987,205.527 169.487,204.527 170,203.5C 170.5,222.164 170.667,240.83 170.5,259.5 Z"/></g>
<g><path style="opacity:1" fill="#ae8448" d="M 315.5,240.5 C 316.833,241.167 317.833,242.167 318.5,243.5C 314.833,254.167 311.167,264.833 307.5,275.5C 306.833,275.5 306.5,275.833 306.5,276.5C 305.022,276.762 303.689,276.429 302.5,275.5C 306.644,263.732 310.977,252.066 315.5,240.5 Z"/></g>
<g><path style="opacity:1" fill="#96753b" d="M 64.5,225.5 C 67.9639,235.072 73.4639,243.405 81,250.5C 85.3951,256.188 86.5617,262.521 84.5,269.5C 72.274,263.417 65.774,253.417 65,239.5C 64.5008,234.845 64.3342,230.179 64.5,225.5 Z"/></g>
<g><path style="opacity:1" fill="#aa7f3f" d="M 156.5,227.5 C 157.29,228.401 158.29,229.068 159.5,229.5C 154.971,240.421 150.637,251.421 146.5,262.5C 144.5,262.5 143.5,261.5 143.5,259.5C 147.462,248.597 151.796,237.93 156.5,227.5 Z"/></g>
<g><path style="opacity:1" fill="#885c2b" d="M 246.5,213.5 C 247.244,216.36 247.911,219.36 248.5,222.5C 250.421,224.166 252.421,224.5 254.5,223.5C 254.5,239.5 254.5,255.5 254.5,271.5C 252.845,270.07 250.845,269.236 248.5,269C 248.398,267.208 247.732,265.375 246.5,263.5C 246.5,246.833 246.5,230.167 246.5,213.5 Z"/></g>
<g><path style="opacity:1" fill="#d8b986" d="M 341.5,203.5 C 340.502,227.328 340.169,251.328 340.5,275.5C 340.167,275.5 339.833,275.5 339.5,275.5C 339.5,253.5 339.5,231.5 339.5,209.5C 339.335,206.482 339.502,203.482 340,200.5C 340.513,201.527 341.013,202.527 341.5,203.5 Z"/></g>
<g><path style="opacity:1" fill="#8d6938" d="M 143.5,259.5 C 143.5,261.5 144.5,262.5 146.5,262.5C 145.036,266.888 143.37,271.221 141.5,275.5C 139.955,276.452 138.288,276.785 136.5,276.5C 138.597,270.651 140.931,264.985 143.5,259.5 Z"/></g>
<g><path style="opacity:1" fill="#9e7742" d="M 170.5,259.5 C 171.5,259.5 172.5,259.5 173.5,259.5C 173.5,265.167 173.5,270.833 173.5,276.5C 172.167,276.5 170.833,276.5 169.5,276.5C 169.5,271.167 169.5,265.833 169.5,260.5C 170.167,260.5 170.5,260.167 170.5,259.5 Z"/></g>
<g><path style="opacity:1" fill="#937137" d="M 389.5,244.5 C 394.015,251.527 399.515,257.86 406,263.5C 411.475,270.433 412.808,278.1 410,286.5C 396.479,275.791 389.646,261.791 389.5,244.5 Z"/></g>
<g><path style="opacity:1" fill="#99773b" d="M 121.5,240.5 C 120.434,258.494 113.934,274.494 102,288.5C 99.8821,282.654 99.2155,276.654 100,270.5C 105.953,262.212 112.286,254.212 119,246.5C 120.122,244.593 120.955,242.593 121.5,240.5 Z"/></g>
<g><path style="opacity:1" fill="#9c783c" d="M 420.5,231.5 C 426.056,279.988 413.889,323.321 384,361.5C 381.963,363.706 379.797,365.706 377.5,367.5C 375.534,366.745 375.2,365.579 376.5,364C 375.906,363.536 375.239,363.369 374.5,363.5C 406.248,326.92 420.248,284.253 416.5,235.5C 416.201,231.935 417.535,230.602 420.5,231.5 Z"/></g>
<g><path style="opacity:1" fill="#947337" d="M 447.5,247.5 C 448.262,258.554 446.095,269.221 441,279.5C 436.445,287.526 429.611,292.193 420.5,293.5C 421.023,287.431 422.856,281.765 426,276.5C 431.635,271.867 436.968,266.867 442,261.5C 445.23,257.375 447.063,252.708 447.5,247.5 Z"/></g>
<g><path style="opacity:1" fill="#e5dbca" d="M 336.5,213.5 C 336.5,234.5 336.5,255.5 336.5,276.5C 337.791,276.737 338.791,276.404 339.5,275.5C 339.833,275.5 340.167,275.5 340.5,275.5C 344.988,276.166 349.654,276.499 354.5,276.5C 359.551,276.493 364.217,275.827 368.5,274.5C 369.779,275.968 371.446,276.635 373.5,276.5C 375.099,276.232 376.432,276.566 377.5,277.5C 364.5,277.5 351.5,277.5 338.5,277.5C 327.833,277.5 317.167,277.5 306.5,277.5C 306.5,277.167 306.5,276.833 306.5,276.5C 306.5,275.833 306.833,275.5 307.5,275.5C 316.652,276.494 325.985,276.827 335.5,276.5C 335.169,255.327 335.503,234.327 336.5,213.5 Z"/></g>
<g><path style="opacity:1" fill="#b88d4e" d="M 199.5,277.5 C 206.167,277.5 212.833,277.5 219.5,277.5C 219.671,279.993 218.671,281.826 216.5,283C 208.841,283.5 201.174,283.666 193.5,283.5C 195.292,282.691 197.292,282.191 199.5,282C 198.587,280.586 198.587,279.086 199.5,277.5 Z"/></g>
<g><path style="opacity:1" fill="#9b733c" d="M 186.5,277.5 C 188.167,277.5 189.833,277.5 191.5,277.5C 194.167,277.5 196.833,277.5 199.5,277.5C 198.587,279.086 198.587,280.586 199.5,282C 197.292,282.191 195.292,282.691 193.5,283.5C 191.5,283.5 189.5,283.5 187.5,283.5C 187.611,282.883 187.944,282.383 188.5,282C 187.418,280.67 186.751,279.17 186.5,277.5 Z"/></g>
<g><path style="opacity:1" fill="#704e24" d="M 306.5,277.5 C 317.167,277.5 327.833,277.5 338.5,277.5C 339.301,279.042 339.634,280.708 339.5,282.5C 324.833,282.5 310.167,282.5 295.5,282.5C 293.815,281.816 292.815,280.483 292.5,278.5C 297.12,277.507 301.786,277.173 306.5,277.5 Z"/></g>
<g><path style="opacity:1" fill="#93733a" d="M 62.5,250.5 C 64.3694,254.566 66.5361,258.566 69,262.5C 74.9685,267.467 80.6352,272.801 86,278.5C 88.5101,283.195 89.6767,288.195 89.5,293.5C 80.2591,291.796 73.4258,286.796 69,278.5C 65.2567,269.527 63.09,260.194 62.5,250.5 Z"/></g>
<g><path style="opacity:1" fill="#5f4321" d="M 126.5,278.5 C 128.265,277.539 130.265,277.205 132.5,277.5C 142.167,277.5 151.833,277.5 161.5,277.5C 160.032,278.779 159.365,280.446 159.5,282.5C 161.099,282.232 162.432,282.566 163.5,283.5C 152.162,283.667 140.828,283.5 129.5,283C 128.934,282.005 128.267,281.172 127.5,280.5C 127.672,279.508 127.338,278.842 126.5,278.5 Z"/></g>
<g><path style="opacity:1" fill="#835d2f" d="M 161.5,277.5 C 169.833,277.5 178.167,277.5 186.5,277.5C 186.751,279.17 187.418,280.67 188.5,282C 187.944,282.383 187.611,282.883 187.5,283.5C 179.5,283.5 171.5,283.5 163.5,283.5C 162.432,282.566 161.099,282.232 159.5,282.5C 159.365,280.446 160.032,278.779 161.5,277.5 Z"/></g>
<g><path style="opacity:1" fill="#936e33" d="M 338.5,277.5 C 351.5,277.5 364.5,277.5 377.5,277.5C 379.5,277.5 381.5,277.5 383.5,277.5C 383.598,279.553 382.931,281.22 381.5,282.5C 367.5,282.5 353.5,282.5 339.5,282.5C 339.634,280.708 339.301,279.042 338.5,277.5 Z"/></g>
<g><path style="opacity:1" fill="#c4baa9" d="M 295.5,282.5 C 310.167,282.5 324.833,282.5 339.5,282.5C 353.5,282.5 367.5,282.5 381.5,282.5C 380.791,283.404 379.791,283.737 378.5,283.5C 378.737,284.791 378.404,285.791 377.5,286.5C 363.873,284.518 349.873,283.851 335.5,284.5C 331.5,284.5 327.5,284.5 323.5,284.5C 316.5,284.5 309.5,284.5 302.5,284.5C 300.901,284.232 299.568,284.566 298.5,285.5C 297.5,284.5 296.5,283.5 295.5,282.5 Z"/></g>
<g><path style="opacity:1" fill="#a47b40" d="M 183.5,284.5 C 193.522,284.168 203.522,284.501 213.5,285.5C 211.581,290.082 208.581,293.749 204.5,296.5C 203.48,295.046 202.313,294.713 201,295.5C 200.044,294.421 199.211,293.255 198.5,292C 194.372,291.602 190.706,290.102 187.5,287.5C 186.109,288.645 184.776,288.645 183.5,287.5C 184.791,286.473 184.791,285.473 183.5,284.5 Z"/></g>
<g><path style="opacity:1" fill="#825c2c" d="M 323.5,284.5 C 327.5,284.5 331.5,284.5 335.5,284.5C 335.423,285.75 334.756,286.583 333.5,287C 338.91,288.049 343.743,290.215 348,293.5C 348.333,293.167 348.667,292.833 349,292.5C 353.098,294.13 357.265,295.63 361.5,297C 363.346,298.03 365.013,299.196 366.5,300.5C 364.628,302.604 362.295,303.937 359.5,304.5C 359.414,303.504 359.748,302.671 360.5,302C 349.181,299.296 338.514,295.629 328.5,291C 327.672,290.085 326.672,289.419 325.5,289C 325.833,288.667 326.167,288.333 326.5,288C 325.167,287.667 323.833,287.333 322.5,287C 323.252,286.329 323.586,285.496 323.5,284.5 Z"/></g>
<g><path style="opacity:1" fill="#936c32" d="M 335.5,284.5 C 349.873,283.851 363.873,284.518 377.5,286.5C 374.787,291.932 371.12,296.599 366.5,300.5C 365.013,299.196 363.346,298.03 361.5,297C 357.265,295.63 353.098,294.13 349,292.5C 348.667,292.833 348.333,293.167 348,293.5C 343.743,290.215 338.91,288.049 333.5,287C 334.756,286.583 335.423,285.75 335.5,284.5 Z"/></g>
<g><path style="opacity:1" fill="#714b24" d="M 246.5,263.5 C 247.732,265.375 248.398,267.208 248.5,269C 250.845,269.236 252.845,270.07 254.5,271.5C 254.5,289.5 254.5,307.5 254.5,325.5C 251.833,325.5 249.167,325.5 246.5,325.5C 246.5,304.833 246.5,284.167 246.5,263.5 Z"/></g>
<g><path style="opacity:1" fill="#97753a" d="M 121.5,262.5 C 123.93,280.108 119.764,296.108 109,310.5C 105.926,305.205 104.592,299.538 105,293.5C 109.083,286.332 113.416,279.332 118,272.5C 119.46,269.252 120.626,265.919 121.5,262.5 Z"/></g>
<g><path style="opacity:1" fill="#906e36" d="M 388.5,264.5 C 391.529,272.379 396.029,279.379 402,285.5C 407.51,293.708 407.843,302.042 403,310.5C 390.865,297.589 386.031,282.256 388.5,264.5 Z"/></g>
<g><path style="opacity:1" fill="#775025" d="M 264.5,275.5 C 264.5,284.167 264.5,292.833 264.5,301.5C 264.5,309.5 264.5,317.5 264.5,325.5C 261.833,325.5 259.167,325.5 256.5,325.5C 256.5,314.833 256.5,304.167 256.5,293.5C 257.479,290.375 257.813,287.042 257.5,283.5C 259.5,283.5 261.5,283.5 263.5,283.5C 263.194,280.615 263.527,277.948 264.5,275.5 Z"/></g>
<g><path style="opacity:1" fill="#906e35" d="M 446.5,275.5 C 445.815,290.309 439.815,302.809 428.5,313C 423.818,315.587 418.818,317.087 413.5,317.5C 414.649,311.535 417.149,306.202 421,301.5C 426.823,296.922 432.823,292.588 439,288.5C 442.534,284.765 445.034,280.432 446.5,275.5 Z"/></g>
<g><path style="opacity:1" fill="#906836" d="M 175.5,284.5 C 178.167,284.5 180.833,284.5 183.5,284.5C 184.791,285.473 184.791,286.473 183.5,287.5C 184.776,288.645 186.109,288.645 187.5,287.5C 190.706,290.102 194.372,291.602 198.5,292C 199.211,293.255 200.044,294.421 201,295.5C 202.313,294.713 203.48,295.046 204.5,296.5C 202.451,299.55 199.784,301.883 196.5,303.5C 189.698,300.272 182.698,297.272 175.5,294.5C 175.5,293.5 175.5,292.5 175.5,291.5C 171.855,292.32 169.522,290.987 168.5,287.5C 170.621,285.982 172.954,284.982 175.5,284.5 Z"/></g>
<g><path style="opacity:1" fill="#795329" d="M 155.5,284.5 C 162.167,284.5 168.833,284.5 175.5,284.5C 172.954,284.982 170.621,285.982 168.5,287.5C 169.522,290.987 171.855,292.32 175.5,291.5C 175.5,292.5 175.5,293.5 175.5,294.5C 182.698,297.272 189.698,300.272 196.5,303.5C 192.952,305.441 189.286,307.107 185.5,308.5C 179.956,306.479 174.456,304.145 169,301.5C 168.667,301.833 168.333,302.167 168,302.5C 167.751,301.376 167.251,300.376 166.5,299.5C 164.459,298.764 162.459,297.931 160.5,297C 157.204,293.36 154.204,290.026 151.5,287C 153.066,286.392 154.4,285.558 155.5,284.5 Z"/></g>
<g><path style="opacity:1" fill="#6b4822" d="M 143.5,284.5 C 147.5,284.5 151.5,284.5 155.5,284.5C 154.4,285.558 153.066,286.392 151.5,287C 154.204,290.026 157.204,293.36 160.5,297C 162.459,297.931 164.459,298.764 166.5,299.5C 167.251,300.376 167.751,301.376 168,302.5C 168.333,302.167 168.667,301.833 169,301.5C 174.456,304.145 179.956,306.479 185.5,308.5C 183.708,308.366 182.042,308.699 180.5,309.5C 177.359,308.679 174.025,308.179 170.5,308C 165.997,304.245 160.997,301.245 155.5,299C 151.03,296.03 147.03,292.53 143.5,288.5C 144.363,287.274 144.363,285.94 143.5,284.5 Z"/></g>
<g><path style="opacity:1" fill="#603f1f" d="M 302.5,284.5 C 303.953,285.825 303.619,286.658 301.5,287C 305.376,287.113 308.042,288.946 309.5,292.5C 317.594,296.046 325.594,299.879 333.5,304C 338.638,305.916 343.971,306.916 349.5,307C 350.056,307.383 350.389,307.883 350.5,308.5C 327.451,313.301 310.118,305.635 298.5,285.5C 299.568,284.566 300.901,284.232 302.5,284.5 Z"/></g>
<g><path style="opacity:1" fill="#5a3d1f" d="M 143.5,284.5 C 144.363,285.94 144.363,287.274 143.5,288.5C 147.03,292.53 151.03,296.03 155.5,299C 160.997,301.245 165.997,304.245 170.5,308C 174.025,308.179 177.359,308.679 180.5,309.5C 159.002,311.418 142.669,303.251 131.5,285C 135.486,284.501 139.486,284.334 143.5,284.5 Z"/></g>
<g><path style="opacity:1" fill="#957338" d="M 126.5,278.5 C 127.338,278.842 127.672,279.508 127.5,280.5C 129.184,292.258 128.684,303.925 126,315.5C 124.631,321.282 122.297,326.615 119,331.5C 114.979,326.476 112.979,320.809 113,314.5C 116.333,307.833 119.667,301.167 123,294.5C 124.802,289.292 125.969,283.959 126.5,278.5 Z"/></g>
<g><path style="opacity:1" fill="#704e24" d="M 302.5,284.5 C 309.5,284.5 316.5,284.5 323.5,284.5C 323.586,285.496 323.252,286.329 322.5,287C 323.833,287.333 325.167,287.667 326.5,288C 326.167,288.333 325.833,288.667 325.5,289C 326.672,289.419 327.672,290.085 328.5,291C 338.514,295.629 349.181,299.296 360.5,302C 359.748,302.671 359.414,303.504 359.5,304.5C 356.739,306.205 353.739,307.538 350.5,308.5C 350.389,307.883 350.056,307.383 349.5,307C 343.971,306.916 338.638,305.916 333.5,304C 325.594,299.879 317.594,296.046 309.5,292.5C 308.042,288.946 305.376,287.113 301.5,287C 303.619,286.658 303.953,285.825 302.5,284.5 Z"/></g>
<g><path style="opacity:1" fill="#906f36" d="M 63.5,276.5 C 65.8442,281.331 68.8442,285.831 72.5,290C 79.8462,293.677 86.3462,298.511 92,304.5C 94.6844,308.863 96.5178,313.53 97.5,318.5C 82.6679,316.175 72.8346,307.842 68,293.5C 65.9031,287.978 64.4031,282.312 63.5,276.5 Z"/></g>
<g><path style="opacity:1" fill="#f6f3ec" d="M 249.5,156.5 C 248.735,159.096 248.401,161.763 248.5,164.5C 253.363,164.819 258.03,164.486 262.5,163.5C 264.822,164.802 266.155,166.802 266.5,169.5C 265.521,172.625 265.187,175.958 265.5,179.5C 265.832,220.337 265.499,261.003 264.5,301.5C 264.5,292.833 264.5,284.167 264.5,275.5C 264.5,254.167 264.5,232.833 264.5,211.5C 264.832,201.478 264.499,191.478 263.5,181.5C 261.253,182.374 258.92,182.708 256.5,182.5C 256.5,199.167 256.5,215.833 256.5,232.5C 256.5,252.833 256.5,273.167 256.5,293.5C 256.5,304.167 256.5,314.833 256.5,325.5C 259.167,325.5 261.833,325.5 264.5,325.5C 269.833,326.167 275.167,326.833 280.5,327.5C 273.5,327.5 266.5,327.5 259.5,327.5C 256.167,327.5 252.833,327.5 249.5,327.5C 242.833,327.5 236.167,327.5 229.5,327.5C 234.64,326.512 239.974,326.179 245.5,326.5C 248.713,326.81 251.713,326.477 254.5,325.5C 254.5,307.5 254.5,289.5 254.5,271.5C 254.5,255.5 254.5,239.5 254.5,223.5C 254.5,209.833 254.5,196.167 254.5,182.5C 252.05,182.702 249.717,182.369 247.5,181.5C 246.879,176.398 246.213,171.398 245.5,166.5C 247.11,163.811 247.943,160.811 248,157.5C 248.383,156.944 248.883,156.611 249.5,156.5 Z"/></g>
<g><path style="opacity:1" fill="#8b5f2c" d="M 264.5,211.5 C 264.5,232.833 264.5,254.167 264.5,275.5C 263.527,277.948 263.194,280.615 263.5,283.5C 261.5,283.5 259.5,283.5 257.5,283.5C 257.813,287.042 257.479,290.375 256.5,293.5C 256.5,273.167 256.5,252.833 256.5,232.5C 257.489,227.025 257.822,221.358 257.5,215.5C 258.5,215.5 259.5,215.5 260.5,215.5C 260.343,216.873 260.51,218.207 261,219.5C 261.774,215.853 262.441,212.186 263,208.5C 263.232,209.737 263.732,210.737 264.5,211.5 Z"/></g>
<g><path style="opacity:1" fill="#9f7131" d="M 264.5,211.5 C 263.732,210.737 263.232,209.737 263,208.5C 262.441,212.186 261.774,215.853 261,219.5C 260.51,218.207 260.343,216.873 260.5,215.5C 259.5,215.5 258.5,215.5 257.5,215.5C 257.822,221.358 257.489,227.025 256.5,232.5C 256.5,215.833 256.5,199.167 256.5,182.5C 258.92,182.708 261.253,182.374 263.5,181.5C 264.499,191.478 264.832,201.478 264.5,211.5 Z"/></g>
<g><path style="opacity:1" fill="#ac7c30" d="M 249.5,166.5 C 253.514,166.334 257.514,166.501 261.5,167C 262.464,171.066 262.797,175.233 262.5,179.5C 258.154,179.666 253.821,179.499 249.5,179C 248.197,174.834 248.197,170.667 249.5,166.5 Z"/></g>
<g><path style="opacity:1" fill="#e0d4b9" d="M 251.5,172.5 C 254.572,172.183 257.572,172.516 260.5,173.5C 259,173.833 257.5,174.167 256,174.5C 254.014,174.431 252.514,173.765 251.5,172.5 Z"/></g>
<g><path style="opacity:1" fill="#9b783b" d="M 386.5,332.5 C 384.108,334.47 381.441,336.137 378.5,337.5C 377.618,336.24 376.618,335.074 375.5,334C 374.563,333.308 373.897,333.475 373.5,334.5C 372.061,324.372 373.228,314.372 377,304.5C 379.334,314.156 382.501,323.49 386.5,332.5 Z"/></g>
<g><path style="opacity:1" fill="#8e6c35" d="M 384.5,288.5 C 387.917,296.788 392.083,304.788 397,312.5C 398.307,319.337 397.14,325.67 393.5,331.5C 382.476,318.935 379.476,304.601 384.5,288.5 Z"/></g>
<g><path style="opacity:1" fill="#d2c6b3" d="M 143.5,318.5 C 142.833,322.833 142.167,327.167 141.5,331.5C 141.334,326.156 141.501,320.823 142,315.5C 142.513,316.527 143.013,317.527 143.5,318.5 Z"/></g>
<g><path style="opacity:1" fill="#8b6a34" d="M 69.5,306.5 C 72.2678,309.771 75.2678,312.938 78.5,316C 85.2019,319.34 91.8685,322.673 98.5,326C 102.939,330.438 106.606,335.438 109.5,341C 95.6272,341.48 84.7939,335.98 77,324.5C 73.6593,318.823 71.1593,312.823 69.5,306.5 Z"/></g>
<g><path style="opacity:1" fill="#6b4a25" d="M 229.5,327.5 C 236.167,327.5 242.833,327.5 249.5,327.5C 251.344,329.672 253.011,332.005 254.5,334.5C 245.167,334.5 235.833,334.5 226.5,334.5C 226.338,332.473 226.505,330.473 227,328.5C 227.671,327.748 228.504,327.414 229.5,327.5 Z"/></g>
<g><path style="opacity:1" fill="#cda669" d="M 259.5,327.5 C 266.5,327.5 273.5,327.5 280.5,327.5C 284.264,328.385 285.264,330.552 283.5,334C 275.507,334.5 267.507,334.666 259.5,334.5C 259.5,332.167 259.5,329.833 259.5,327.5 Z"/></g>
<g><path style="opacity:1" fill="#9c7743" d="M 249.5,327.5 C 252.833,327.5 256.167,327.5 259.5,327.5C 259.5,329.833 259.5,332.167 259.5,334.5C 257.833,334.5 256.167,334.5 254.5,334.5C 253.011,332.005 251.344,329.672 249.5,327.5 Z"/></g>
<g><path style="opacity:1" fill="#937036" d="M 132.5,298.5 C 139.115,315.681 139.115,333.015 132.5,350.5C 127.862,346.732 124.862,341.898 123.5,336C 126.87,327.358 129.703,318.524 132,309.5C 132.499,305.848 132.665,302.182 132.5,298.5 Z"/></g>
<g><path style="opacity:1" fill="#5f4324" d="M 224.5,335.5 C 227.962,336.482 231.629,336.815 235.5,336.5C 235.166,339.188 235.832,341.521 237.5,343.5C 229.833,343.5 222.167,343.5 214.5,343.5C 213.021,340.857 213.354,338.357 215.5,336C 218.482,335.502 221.482,335.335 224.5,335.5 Z"/></g>
<g><path style="opacity:1" fill="#7d592f" d="M 235.5,336.5 C 242.833,336.5 250.167,336.5 257.5,336.5C 257.5,338.833 257.5,341.167 257.5,343.5C 250.833,343.5 244.167,343.5 237.5,343.5C 235.832,341.521 235.166,339.188 235.5,336.5 Z"/></g>
<g><path style="opacity:1" fill="#caa773" d="M 224.5,335.5 C 245.5,335.5 266.5,335.5 287.5,335.5C 287.5,338.167 287.5,340.833 287.5,343.5C 277.5,343.5 267.5,343.5 257.5,343.5C 257.5,341.167 257.5,338.833 257.5,336.5C 250.167,336.5 242.833,336.5 235.5,336.5C 231.629,336.815 227.962,336.482 224.5,335.5 Z"/></g>
<g><path style="opacity:1" fill="#906e33" d="M 441.5,303.5 C 438.808,317.98 431.142,329.48 418.5,338C 413.302,340.344 407.969,341.177 402.5,340.5C 405.21,334.908 408.544,329.741 412.5,325C 418.377,321.815 424.377,318.815 430.5,316C 434.747,312.258 438.414,308.092 441.5,303.5 Z"/></g>
<g><path style="opacity:1" fill="#937138" d="M 89.5,237.5 C 89.5,240.167 89.5,242.833 89.5,245.5C 91.1993,245.473 92.5326,244.806 93.5,243.5C 92.7884,278.323 101.288,310.657 119,340.5C 123.313,347.303 128.147,353.636 133.5,359.5C 137.5,363.833 141.5,368.167 145.5,372.5C 143.777,372.392 142.11,372.892 140.5,374C 143.19,374.335 143.857,375.501 142.5,377.5C 137.806,373.473 133.473,369.14 129.5,364.5C 99.2775,327.499 85.9442,285.165 89.5,237.5 Z"/></g>
<g><path style="opacity:1" fill="#926e33" d="M 143.5,318.5 C 150.457,334.494 152.457,351.161 149.5,368.5C 144.848,365.514 140.848,361.847 137.5,357.5C 138.512,348.785 139.845,340.119 141.5,331.5C 142.167,327.167 142.833,322.833 143.5,318.5 Z"/></g>
<g><path style="opacity:1" fill="#87662f" d="M 386.5,332.5 C 384.256,355.159 379.922,355.825 373.5,334.5C 373.897,333.475 374.563,333.308 375.5,334C 376.618,335.074 377.618,336.24 378.5,337.5C 381.441,336.137 384.108,334.47 386.5,332.5 Z"/></g>
<g><path style="opacity:1" fill="#886630" d="M 75.5,328.5 C 79.3508,333.514 84.0175,337.681 89.5,341C 97.505,343.222 105.172,346.222 112.5,350C 116.725,353.722 120.392,357.888 123.5,362.5C 107.831,364.256 94.9978,358.923 85,346.5C 81.0436,340.921 77.8769,334.921 75.5,328.5 Z"/></g>
<g><path style="opacity:1" fill="#af8855" d="M 287.5,335.5 C 290.187,335.336 292.854,335.503 295.5,336C 297.646,338.357 297.979,340.857 296.5,343.5C 293.5,343.5 290.5,343.5 287.5,343.5C 287.5,340.833 287.5,338.167 287.5,335.5 Z"/></g>
<g><path style="opacity:1" fill="#8b6a32" d="M 434.5,327.5 C 431.45,338.802 425.117,348.302 415.5,356C 406.797,362.259 397.131,364.592 386.5,363C 390.167,358.667 393.833,354.333 397.5,350C 400.339,348.08 403.339,346.413 406.5,345C 418.631,343.445 427.965,337.611 434.5,327.5 Z"/></g>
<g><path style="opacity:1" fill="#cdc6bb" d="M 214.5,343.5 C 222.167,343.5 229.833,343.5 237.5,343.5C 244.167,343.5 250.833,343.5 257.5,343.5C 267.5,343.5 277.5,343.5 287.5,343.5C 290.5,343.5 293.5,343.5 296.5,343.5C 299.5,344.167 302.5,344.833 305.5,345.5C 302.5,345.5 299.5,345.5 296.5,345.5C 287.167,345.5 277.833,345.5 268.5,345.5C 264.167,345.5 259.833,345.5 255.5,345.5C 252.167,345.5 248.833,345.5 245.5,345.5C 239.833,345.5 234.167,345.5 228.5,345.5C 220.833,345.5 213.167,345.5 205.5,345.5C 208.5,344.833 211.5,344.167 214.5,343.5 Z"/></g>
<g><path style="opacity:1" fill="#4e361c" d="M 205.5,345.5 C 213.167,345.5 220.833,345.5 228.5,345.5C 228.611,346.117 228.944,346.617 229.5,347C 227.048,349.079 227.048,351.246 229.5,353.5C 221.167,353.5 212.833,353.5 204.5,353.5C 203.848,352.551 203.514,351.385 203.5,350C 203.307,347.992 203.974,346.492 205.5,345.5 Z"/></g>
<g><path style="opacity:1" fill="#cba467" d="M 268.5,345.5 C 277.833,345.5 287.167,345.5 296.5,345.5C 296.279,348.279 296.612,350.946 297.5,353.5C 287.833,353.5 278.167,353.5 268.5,353.5C 267.978,350.686 267.978,348.02 268.5,345.5 Z"/></g>
<g><path style="opacity:1" fill="#63421f" d="M 228.5,345.5 C 234.167,345.5 239.833,345.5 245.5,345.5C 245.107,348.513 245.774,351.18 247.5,353.5C 241.5,353.5 235.5,353.5 229.5,353.5C 227.048,351.246 227.048,349.079 229.5,347C 228.944,346.617 228.611,346.117 228.5,345.5 Z"/></g>
<g><path style="opacity:1" fill="#7c572a" d="M 245.5,345.5 C 248.833,345.5 252.167,345.5 255.5,345.5C 256.714,348.204 256.714,350.871 255.5,353.5C 252.833,353.5 250.167,353.5 247.5,353.5C 245.774,351.18 245.107,348.513 245.5,345.5 Z"/></g>
<g><path style="opacity:1" fill="#9a7340" d="M 255.5,345.5 C 259.833,345.5 264.167,345.5 268.5,345.5C 267.978,348.02 267.978,350.686 268.5,353.5C 264.167,353.5 259.833,353.5 255.5,353.5C 256.714,350.871 256.714,348.204 255.5,345.5 Z"/></g>
<g><path style="opacity:1" fill="#8d6631" d="M 296.5,345.5 C 299.5,345.5 302.5,345.5 305.5,345.5C 306.167,345.5 306.5,345.833 306.5,346.5C 306.5,348.833 306.5,351.167 306.5,353.5C 303.5,353.5 300.5,353.5 297.5,353.5C 296.612,350.946 296.279,348.279 296.5,345.5 Z"/></g>
<g><path style="opacity:1" fill="#8e6d35" d="M 365.5,368.5 C 364.833,368.167 364.167,367.833 363.5,367.5C 361.699,361.961 360.365,356.294 359.5,350.5C 360.395,339.646 363.229,329.312 368,319.5C 368.333,324.167 368.667,328.833 369,333.5C 376.004,346.132 374.837,357.798 365.5,368.5 Z"/></g>
<g><path style="opacity:1" fill="#d9d1c3" d="M 306.5,346.5 C 307.473,348.948 307.806,351.615 307.5,354.5C 272.996,354.832 238.663,354.498 204.5,353.5C 212.833,353.5 221.167,353.5 229.5,353.5C 235.5,353.5 241.5,353.5 247.5,353.5C 250.167,353.5 252.833,353.5 255.5,353.5C 259.833,353.5 264.167,353.5 268.5,353.5C 278.167,353.5 287.833,353.5 297.5,353.5C 300.5,353.5 303.5,353.5 306.5,353.5C 306.5,351.167 306.5,348.833 306.5,346.5 Z"/></g>
<g><path style="opacity:1" fill="#937033" d="M 357.5,360.5 C 355.116,361.522 352.283,362.522 349,363.5C 346.759,363.32 346.259,362.487 347.5,361C 346.648,359.272 345.648,359.105 344.5,360.5C 347.601,351.631 351.768,343.298 357,335.5C 354.965,343.762 355.132,352.095 357.5,360.5 Z"/></g>
<g><path style="opacity:1" fill="#f8f5ed" d="M 137.5,357.5 C 140.848,361.847 144.848,365.514 149.5,368.5C 150.11,370.85 150.444,370.517 150.5,367.5C 151.5,367.5 152.5,367.5 153.5,367.5C 153.34,369.199 153.506,370.866 154,372.5C 157.815,376.072 161.815,379.405 166,382.5C 166.5,376.175 166.666,369.842 166.5,363.5C 167.75,363.423 168.583,362.756 169,361.5C 169.333,361.833 169.667,362.167 170,362.5C 170.49,361.207 170.657,359.873 170.5,358.5C 171.33,367.324 171.83,376.324 172,385.5C 176.656,389.329 181.656,392.663 187,395.5C 186.548,384.69 184.048,374.357 179.5,364.5C 182.256,364.716 184.59,365.716 186.5,367.5C 188.412,374.945 189.912,382.612 191,390.5C 192.07,394.311 193.903,397.644 196.5,400.5C 194.863,399.782 193.197,399.616 191.5,400C 192.823,400.816 193.489,401.983 193.5,403.5C 175.832,395.671 159.832,385.338 145.5,372.5C 141.5,368.167 137.5,363.833 133.5,359.5C 134.995,359.011 136.329,358.345 137.5,357.5 Z"/></g>
<g><path style="opacity:1" fill="#83612b" d="M 127.5,370.5 C 133.033,373.686 138.033,377.686 142.5,382.5C 140.369,383.169 138.369,383.835 136.5,384.5C 124.524,385.674 113.857,382.507 104.5,375C 97.3238,369.195 91.8238,362.361 88,354.5C 92.3673,359.204 97.5339,362.704 103.5,365C 111.649,366.301 119.649,368.134 127.5,370.5 Z"/></g>
<g><path style="opacity:1" fill="#8b672e" d="M 166.5,363.5 C 166.666,369.842 166.5,376.175 166,382.5C 161.815,379.405 157.815,376.072 154,372.5C 153.506,370.866 153.34,369.199 153.5,367.5C 155.249,356.856 155.749,346.19 155,335.5C 160.784,344.063 164.617,353.397 166.5,363.5 Z"/></g>
<g><path style="opacity:1" fill="#8c662c" d="M 179.5,364.5 C 184.048,374.357 186.548,384.69 187,395.5C 181.656,392.663 176.656,389.329 172,385.5C 171.83,376.324 171.33,367.324 170.5,358.5C 170.273,355.035 169.773,351.701 169,348.5C 172.759,353.691 176.259,359.024 179.5,364.5 Z"/></g>
<g><path style="opacity:1" fill="#815f27" d="M 357.5,360.5 C 357.5,362.833 357.5,365.167 357.5,367.5C 355.847,374.114 352.181,379.447 346.5,383.5C 343.548,376.029 342.881,368.362 344.5,360.5C 345.648,359.105 346.648,359.272 347.5,361C 346.259,362.487 346.759,363.32 349,363.5C 352.283,362.522 355.116,361.522 357.5,360.5 Z"/></g>
<g><path style="opacity:1" fill="#957132" d="M 340.5,357.5 C 340.167,364.833 339.833,372.167 339.5,379.5C 339.649,378.448 339.483,377.448 339,376.5C 338.059,378.061 336.892,379.395 335.5,380.5C 332.431,378.522 329.431,376.855 326.5,375.5C 328.655,369.857 331.322,364.523 334.5,359.5C 337.223,356.414 339.723,353.08 342,349.5C 341.641,352.112 341.141,354.779 340.5,357.5 Z"/></g>
<g><path style="opacity:1" fill="#8a652b" d="M 196.5,400.5 C 193.903,397.644 192.07,394.311 191,390.5C 189.912,382.612 188.412,374.945 186.5,367.5C 185.859,364.779 185.359,362.112 185,359.5C 195.082,367.91 202.415,378.244 207,390.5C 208.529,395.809 208.696,401.142 207.5,406.5C 203.357,405.264 199.691,403.264 196.5,400.5 Z"/></g>
<g><path style="opacity:1" fill="#8e6a2c" d="M 389.5,368.5 C 393.967,369.075 398.634,369.575 403.5,370C 404.833,370.667 404.833,371.333 403.5,372C 404.167,372.333 404.833,372.667 405.5,373C 401.529,374.275 397.529,375.609 393.5,377C 392.019,377.98 390.685,379.147 389.5,380.5C 384.208,381.495 378.875,381.828 373.5,381.5C 373.737,380.209 373.404,379.209 372.5,378.5C 374.5,376.833 376.5,375.167 378.5,373.5C 381.966,371.36 385.633,369.694 389.5,368.5 Z"/></g>
<g><path style="opacity:1" fill="#896631" d="M 377.5,384.5 C 374.943,383.515 372.276,382.515 369.5,381.5C 370.188,380.145 371.188,379.145 372.5,378.5C 373.404,379.209 373.737,380.209 373.5,381.5C 378.875,381.828 384.208,381.495 389.5,380.5C 390.685,379.147 392.019,377.98 393.5,377C 397.529,375.609 401.529,374.275 405.5,373C 404.833,372.667 404.167,372.333 403.5,372C 404.833,371.333 404.833,370.667 403.5,370C 398.634,369.575 393.967,369.075 389.5,368.5C 400.959,367.676 411.292,363.676 420.5,356.5C 420.833,356.833 421.167,357.167 421.5,357.5C 414.872,368.295 405.872,376.462 394.5,382C 389.012,384.016 383.345,384.849 377.5,384.5 Z"/></g>
<g><path style="opacity:1" fill="#a7843d" d="M 324.5,362.5 C 325.043,362.56 325.376,362.893 325.5,363.5C 323.337,369.792 322.004,376.126 321.5,382.5C 321.662,380.473 321.495,378.473 321,376.5C 318.833,378 317,379.833 315.5,382C 313.19,382.497 310.857,382.663 308.5,382.5C 309.833,380.5 311.167,378.5 312.5,376.5C 316.5,371.833 320.5,367.167 324.5,362.5 Z"/></g>
<g><path style="opacity:1" fill="#89652d" d="M 145.5,372.5 C 159.832,385.338 175.832,395.671 193.5,403.5C 195.574,404.514 197.574,405.514 199.5,406.5C 197.856,406.714 196.356,406.38 195,405.5C 195.355,406.959 195.189,408.293 194.5,409.5C 190.838,408.168 187.172,406.835 183.5,405.5C 168.656,397.91 154.99,388.577 142.5,377.5C 143.857,375.501 143.19,374.335 140.5,374C 142.11,372.892 143.777,372.392 145.5,372.5 Z"/></g>
<g><path style="opacity:1" fill="#9f7936" d="M 309.5,376.5 C 306.248,381.334 303.248,386.334 300.5,391.5C 299.258,389.108 297.925,389.275 296.5,392C 294.48,393.217 292.48,393.383 290.5,392.5C 289.019,393.48 287.685,394.647 286.5,396C 284.866,396.494 283.199,396.66 281.5,396.5C 283.876,391.285 287.543,387.118 292.5,384C 298.167,380.5 303.833,377 309.5,373.5C 310.087,374.233 310.087,375.233 309.5,376.5 Z"/></g>
<g><path style="opacity:1" fill="#f7f6ed" d="M 334.5,359.5 C 331.322,364.523 328.655,369.857 326.5,375.5C 324.333,382.349 324,389.349 325.5,396.5C 333.152,393.191 337.819,387.524 339.5,379.5C 339.833,372.167 340.167,364.833 340.5,357.5C 341.883,358.443 343.216,359.443 344.5,360.5C 342.881,368.362 343.548,376.029 346.5,383.5C 352.181,379.447 355.847,374.114 357.5,367.5C 357.181,369.75 357.681,371.75 359,373.5C 359,371.5 359,369.5 359,367.5C 360.299,367.034 361.799,367.034 363.5,367.5C 364.167,367.833 364.833,368.167 365.5,368.5C 365.5,369.833 366.167,370.5 367.5,370.5C 353.624,384.45 337.624,395.45 319.5,403.5C 305.702,409.2 291.369,412.866 276.5,414.5C 276.5,413.833 276.5,413.167 276.5,412.5C 279.625,412.135 282.625,411.302 285.5,410C 291.827,404.81 296.827,398.643 300.5,391.5C 303.248,386.334 306.248,381.334 309.5,376.5C 310.5,376.5 311.5,376.5 312.5,376.5C 311.167,378.5 309.833,380.5 308.5,382.5C 306.444,386.333 304.778,390.333 303.5,394.5C 302.728,398.452 302.395,402.452 302.5,406.5C 311.012,404.99 316.346,399.99 318.5,391.5C 320.253,388.854 321.253,385.854 321.5,382.5C 322.004,376.126 323.337,369.792 325.5,363.5C 325.376,362.893 325.043,362.56 324.5,362.5C 326.85,360.787 327.85,358.453 327.5,355.5C 326.022,355.762 324.689,355.429 323.5,354.5C 326.675,352.909 330.009,351.909 333.5,351.5C 333.357,353.262 333.691,354.929 334.5,356.5C 330.665,357.996 330.665,358.996 334.5,359.5 Z"/></g>
<g><path style="opacity:1" fill="#926d2c" d="M 321.5,382.5 C 321.253,385.854 320.253,388.854 318.5,391.5C 316.628,392.511 314.628,393.345 312.5,394C 309.303,394.242 306.303,394.408 303.5,394.5C 304.778,390.333 306.444,386.333 308.5,382.5C 310.857,382.663 313.19,382.497 315.5,382C 317,379.833 318.833,378 321,376.5C 321.495,378.473 321.662,380.473 321.5,382.5 Z"/></g>
<g><path style="opacity:1" fill="#836029" d="M 326.5,375.5 C 329.431,376.855 332.431,378.522 335.5,380.5C 336.892,379.395 338.059,378.061 339,376.5C 339.483,377.448 339.649,378.448 339.5,379.5C 337.819,387.524 333.152,393.191 325.5,396.5C 324,389.349 324.333,382.349 326.5,375.5 Z"/></g>
<g><path style="opacity:1" fill="#825e27" d="M 135.5,388.5 C 146.425,387.797 155.758,391.297 163.5,399C 160.79,400.747 157.79,401.747 154.5,402C 150.179,402.499 145.846,402.666 141.5,402.5C 126.028,399.432 113.362,391.766 103.5,379.5C 103.667,379.167 103.833,378.833 104,378.5C 112.954,386.54 123.454,389.873 135.5,388.5 Z"/></g>
<g><path style="opacity:1" fill="#86612a" d="M 203.5,371.5 C 214.872,380.371 224.705,390.705 233,402.5C 234.149,405.393 234.649,408.393 234.5,411.5C 227.602,411.134 221.769,408.467 217,403.5C 212.212,392.927 207.712,382.261 203.5,371.5 Z"/></g>
<g><path style="opacity:1" fill="#89642a" d="M 374.5,363.5 C 375.239,363.369 375.906,363.536 376.5,364C 375.2,365.579 375.534,366.745 377.5,367.5C 377.167,368.167 376.833,368.833 376.5,369.5C 364.135,381.699 350.468,392.199 335.5,401C 330.701,403.735 325.701,405.902 320.5,407.5C 319.761,407.631 319.094,407.464 318.5,407C 319.337,405.989 319.67,404.822 319.5,403.5C 337.624,395.45 353.624,384.45 367.5,370.5C 370.167,368.5 372.5,366.167 374.5,363.5 Z"/></g>
<g><path style="opacity:1" fill="#f6f4eb" d="M 129.5,364.5 C 133.473,369.14 137.806,373.473 142.5,377.5C 154.99,388.577 168.656,397.91 183.5,405.5C 182.29,405.932 181.29,406.599 180.5,407.5C 171.245,403.735 161.912,403.569 152.5,407C 147.316,407.816 142.316,407.65 137.5,406.5C 139.527,406.662 141.527,406.495 143.5,406C 144.048,404.404 143.382,403.237 141.5,402.5C 145.846,402.666 150.179,402.499 154.5,402C 157.79,401.747 160.79,400.747 163.5,399C 155.758,391.297 146.425,387.797 135.5,388.5C 136.718,387.839 138.051,387.172 139.5,386.5C 138.995,385.081 137.995,384.415 136.5,384.5C 138.369,383.835 140.369,383.169 142.5,382.5C 138.033,377.686 133.033,373.686 127.5,370.5C 128.496,370.586 129.329,370.252 130,369.5C 130.384,367.803 130.218,366.137 129.5,364.5 Z"/></g>
<g><path style="opacity:1" fill="#8c662a" d="M 300.5,391.5 C 296.827,398.643 291.827,404.81 285.5,410C 282.625,411.302 279.625,412.135 276.5,412.5C 276.42,406.514 278.087,401.181 281.5,396.5C 283.199,396.66 284.866,396.494 286.5,396C 287.685,394.647 289.019,393.48 290.5,392.5C 292.48,393.383 294.48,393.217 296.5,392C 297.925,389.275 299.258,389.108 300.5,391.5 Z"/></g>
<g><path style="opacity:1" fill="#825d26" d="M 318.5,391.5 C 316.346,399.99 311.012,404.99 302.5,406.5C 302.395,402.452 302.728,398.452 303.5,394.5C 306.303,394.408 309.303,394.242 312.5,394C 314.628,393.345 316.628,392.511 318.5,391.5 Z"/></g>
<g><path style="opacity:1" fill="#88652d" d="M 363.5,404.5 C 357.84,403.368 352.506,401.368 347.5,398.5C 352.063,394.721 357.063,391.721 362.5,389.5C 371.836,388.851 381.169,388.018 390.5,387C 396.422,384.859 402.088,382.526 407.5,380C 396.499,394.852 381.832,403.019 363.5,404.5 Z"/></g>
<g><path style="opacity:1" fill="#815c27" d="M 137.5,406.5 C 142.316,407.65 147.316,407.816 152.5,407C 161.912,403.569 171.245,403.735 180.5,407.5C 183.142,408.895 185.809,410.395 188.5,412C 166.945,422.605 146.945,420.271 128.5,405C 131.404,405.565 134.404,406.065 137.5,406.5 Z"/></g>
<g><path style="opacity:1" fill="#815d23" d="M 355.5,419.5 C 343.56,421.965 332.893,419.298 323.5,411.5C 334.523,405.097 346.19,403.764 358.5,407.5C 363.081,408.607 367.748,408.773 372.5,408C 388.978,401.24 389.644,402.574 374.5,412C 368.325,415.001 361.991,417.501 355.5,419.5 Z"/></g>
<g><path style="opacity:1" fill="#7a5827" d="M 319.5,403.5 C 319.67,404.822 319.337,405.989 318.5,407C 319.094,407.464 319.761,407.631 320.5,407.5C 310.505,411.915 300.172,415.248 289.5,417.5C 280.511,418.547 271.511,419.547 262.5,420.5C 269.599,427.867 275.599,436.034 280.5,445C 278.385,445.557 276.385,446.391 274.5,447.5C 272.392,440.618 269.226,434.284 265,428.5C 262.278,425.556 259.111,423.223 255.5,421.5C 245.055,427.048 239.055,435.714 237.5,447.5C 235.04,447.301 232.707,446.635 230.5,445.5C 234.95,436.05 240.95,427.717 248.5,420.5C 229.976,419.192 211.976,415.525 194.5,409.5C 195.189,408.293 195.355,406.959 195,405.5C 196.356,406.38 197.856,406.714 199.5,406.5C 224.565,414.841 250.231,417.508 276.5,414.5C 291.369,412.866 305.702,409.2 319.5,403.5 Z"/></g>
<g><path style="opacity:1" fill="#f5f2e8" d="M 376.5,369.5 C 376.66,371.153 377.326,372.486 378.5,373.5C 376.5,375.167 374.5,376.833 372.5,378.5C 371.188,379.145 370.188,380.145 369.5,381.5C 372.276,382.515 374.943,383.515 377.5,384.5C 375.533,384.739 373.699,384.406 372,383.5C 371.517,384.448 371.351,385.448 371.5,386.5C 367.845,385.925 364.845,386.925 362.5,389.5C 357.063,391.721 352.063,394.721 347.5,398.5C 352.506,401.368 357.84,403.368 363.5,404.5C 361.739,405.313 360.072,406.313 358.5,407.5C 346.19,403.764 334.523,405.097 323.5,411.5C 332.893,419.298 343.56,421.965 355.5,419.5C 355.586,420.496 355.252,421.329 354.5,422C 356.557,422.305 358.557,422.305 360.5,422C 359.835,424.577 358.501,425.41 356.5,424.5C 351.715,424.457 346.715,424.29 341.5,424C 334.105,421.868 326.772,419.535 319.5,417C 311.237,415.848 303.237,416.681 295.5,419.5C 294.082,417.692 292.082,417.025 289.5,417.5C 300.172,415.248 310.505,411.915 320.5,407.5C 325.701,405.902 330.701,403.735 335.5,401C 350.468,392.199 364.135,381.699 376.5,369.5 Z"/></g>
<g><path style="opacity:1" fill="#84602a" d="M 193.5,415.5 C 201.138,415.528 208.471,417.028 215.5,420C 209.021,425.573 201.688,429.573 193.5,432C 179.702,433.307 166.702,430.64 154.5,424C 160.167,423.667 165.833,423.333 171.5,423C 178.979,420.563 186.313,418.063 193.5,415.5 Z"/></g>
<g><path style="opacity:1" fill="#815b21" d="M 356.5,424.5 C 344.211,430.655 331.211,433.155 317.5,432C 309.029,429.605 301.696,425.438 295.5,419.5C 303.237,416.681 311.237,415.848 319.5,417C 326.772,419.535 334.105,421.868 341.5,424C 346.715,424.29 351.715,424.457 356.5,424.5 Z"/></g>
<g><path style="opacity:1" fill="#835e2a" d="M 181.5,438.5 C 184.167,437.833 186.833,437.167 189.5,436.5C 193.319,436.395 196.986,435.562 200.5,434C 207.554,429.806 214.888,426.139 222.5,423C 228.569,422.196 234.569,422.529 240.5,424C 232.465,436.601 220.965,442.434 206,441.5C 197.683,441.523 189.516,440.523 181.5,438.5 Z"/></g>
<g><path style="opacity:1" fill="#815c24" d="M 273.5,422.5 C 278.913,422.229 284.246,422.729 289.5,424C 296.591,427.044 303.591,430.378 310.5,434C 316.008,435.851 321.675,436.851 327.5,437C 315.093,441.484 302.427,442.484 289.5,440C 281.652,436.487 275.319,431.154 270.5,424C 271.737,423.768 272.737,423.268 273.5,422.5 Z"/></g>
<g><path style="opacity:1" fill="#bab0a0" d="M 189.5,436.5 C 186.833,437.167 184.167,437.833 181.5,438.5C 180.711,438.217 180.044,437.717 179.5,437C 182.817,436.502 186.15,436.335 189.5,436.5 Z"/></g>
</svg>
